<svg width="50" height="50" viewBox="0 0 8 8" xmlns="http://www.w3.org/2000/svg" aria-hidden="true" class="iconify iconify--noto"><path d="M4.163.962c-1.696 0-3.069.451-3.069 1.006l.509 4.527c.05.549 1.054 1.254 2.561 1.254s2.498-.661 2.561-1.254l.509-4.527C7.233 1.412 5.858.962 4.163.962" fill="#03a9f4"/><path d="M7.217 1.613c0-.556-1.338-.959-3.083-.959-1.498 0-2.774.315-3.1.761l.092.843s.685.535 3.037.535q.126 0 .246-.003l.079.859h.138l.172-.872c1.844-.094 2.408-.578 2.408-.578z" fill="#1f6abf"/><path d="M7.662 1.13S6.259.811 4.119.811s-3.492.28-3.492.28c.039.459.217.867.217.867s.585.623 3.304.623 3.292-.561 3.376-.655c.084-.095.138-.796.138-.796" fill="#03a9f4"/><path d="M7.657.997C7.531.543 6.286.25 4.144.25S.758.543.631.997c-.114.412.981.859 3.513.859S7.771 1.41 7.657.997" fill="#81d4fa"/><path fill="#1f6abf" d="M7.122.963a2.978.491 0 0 1-2.978.49 2.978.491 0 0 1-2.977-.49 2.978.491 0 0 1 5.955 0"/><path d="M3.796.472C2.001.533 1.167.767 1.167.963c0 .271 1.284.459 2.629.491z" fill="url(#a)"/><path d="M5.186 3.359c-.767.433-2.731 1.457-3.781 1.374l.093.851c.09.014 2.169.061 3.97-2.041z" fill="#1f6abf"/><path d="M1.119 2.184C.668 2.63.166 3.187.413 3.788a.74.74 0 0 0 .389.383s.004-.043.014-.114c.037-.276.178-.579.411-.912z" fill="#757575"/><path d="M5.509 3.281c-.09-.247-.37-.113-.37-.113-.85.48-3.125 1.587-4.237 1.143-.29-.116-.531-.26-.68-.651-.001.281.35 1.077.638 1.224.234.118.503.197.828.197q.823 0 2.047-.56c.929-.425 1.631-.901 1.663-.922.001-.001.194-.092.112-.318" fill="#9e9e9e"/><path d="M5.397 3.026c-.128-.097-.344-.052-.523.041-.072.026-.639.402-1.563.763-1.2.469-2.09.549-2.573.232-.263-.172-.362-.4-.305-.698.068-.353.325-.729.694-1.109l-.014-.126-.097-.052c-.411.409-.707.835-.787 1.248-.073.378.064.693.395.91.242.159.547.224.885.224 1.461 0 3.44-1.176 3.546-1.239 0 0 .282-.169.427.043a.26.26 0 0 1 .042.176s.073-.26-.127-.412" fill="#e0e0e0"/></svg>